<?xml version="1.0" encoding="iso-8859-1"?>
<!-- Generator: Adobe Illustrator 19.0.0, SVG Export Plug-In . SVG Version: 6.00 Build 0)  -->
<svg version="1.1" id="Capa_1" xmlns="http://www.w3.org/2000/svg" xmlns:xlink="http://www.w3.org/1999/xlink" x="0px" y="0px"
	 viewBox="0 0 512 512" style="enable-background:new 0 0 512 512;" xml:space="preserve">
<g>
	<g>
		<path d="M438.978,223.391c20.995-25.919,32.08-58.23,31.396-92.173c-0.758-37.592-15.827-72.947-42.43-99.55
			c-24.008-24.009-63.074-24.009-87.082,0l-46.804,46.804L267.79,52.204L159.218,160.775c-13.905-5.752-28.963-8.762-44.097-8.762
			C51.643,152.012,0,203.656,0,267.133v90.094h30.031v-90.094c0-16.559,13.472-30.031,30.031-30.031
			c6.299,0,12.324,1.971,17.324,5.504l-11.523,11.523l244.211,244.21L512,296.414L438.978,223.391z M362.097,52.904
			c12.3-12.299,32.312-12.299,44.612,0c40.488,40.488,44.384,104.969,10.871,149.09L315.293,99.707L362.097,52.904z M60.063,207.07
			c-1.82,0-3.618,0.095-5.397,0.254c15.432-15.597,36.831-25.28,60.454-25.28c6.978,0,13.79,0.817,20.39,2.438L98.783,221.21
			C88.079,212.182,74.424,207.07,60.063,207.07z M108.336,254.129L267.79,94.674l128.579,128.579
			c-19.178,14.714-42.424,22.824-67.023,23.125c-22.344,0.267-43.726-5.914-62.081-17.701c1.455-9.175-1.345-18.893-8.417-25.963
			c-11.728-11.728-30.743-11.728-42.471,0c-11.728,11.728-11.728,30.743,0,42.472c8.594,8.594,21.099,10.882,31.784,6.88
			c23.393,15.853,50.9,24.353,79.75,24.353c0.601,0,1.201-0.003,1.803-0.011c32.524-0.398,63.177-11.563,88.04-31.769l51.775,51.775
			L310.075,455.867L108.336,254.129z"/>
	</g>
</g>
<g>
</g>
<g>
</g>
<g>
</g>
<g>
</g>
<g>
</g>
<g>
</g>
<g>
</g>
<g>
</g>
<g>
</g>
<g>
</g>
<g>
</g>
<g>
</g>
<g>
</g>
<g>
</g>
<g>
</g>
</svg>
