<?xml version="1.0"?>
<svg xmlns="http://www.w3.org/2000/svg" xmlns:xlink="http://www.w3.org/1999/xlink" version="1.1" id="Capa_1" x="0px" y="0px" viewBox="0 0 397.12 397.12" style="enable-background:new 0 0 397.12 397.12;" xml:space="preserve" width="24px" height="24px" class=""><g><path style="fill:#01010100" d="M198.76,309.44l-4.64,23.12l-7.12-0.64c-65.02-5.511-116.574-57.133-122-122.16l-0.64-7.12l23.2-4.4  l-23.12-4.64l0.64-7.12c5.543-65.005,57.148-116.542,122.16-122l7.12-0.64l4.4,23.2l4.64-23.12l7.12,0.64  c65.02,5.511,116.574,57.133,122,122.16l0.64,7.12l-23.2,4.4l23.12,4.64l-0.64,7.12c-5.543,65.005-57.148,116.542-122.16,122  l-7.12,0.64L198.76,309.44z M198.76,124.72c-40.56,0-73.44,32.88-73.44,73.44c0,40.56,32.88,73.44,73.44,73.44  c40.529,0,73.396-32.831,73.44-73.36c-0.044-40.542-32.899-73.396-73.44-73.44V124.72z" data-original="#FFFFFF" class="active-path" data-old_color="#020202"/><g>
	<path style="fill:#F4F4F4" d="M198.76,278.24c-44.183,0-80-35.817-80-80s35.817-80,80-80s80,35.817,80,80   S242.942,278.24,198.76,278.24z" data-original="#EC3047" class="" data-old_color="#F4F3F3"/>
	<path style="fill:#F4F4F4" d="M315.8,206.32v-15.68l79.76-16v47.68L315.8,206.32z" data-original="#EC3047" class="" data-old_color="#F4F3F3"/>
	<path style="fill:#F4F4F4" d="M174.68,395.04l16-79.76h15.68l16,79.76H174.68z" data-original="#EC3047" class="" data-old_color="#F4F3F3"/>
	<path style="fill:#F4F4F4" d="M175.16,1.44h47.68l-16,79.84h-15.68L175.16,1.44z" data-original="#EC3047" class="" data-old_color="#F4F3F3"/>
	<path style="fill:#F4F4F4" d="M1.96,174.16l79.84,16v15.68l-79.84,16L1.96,174.16z" data-original="#EC3047" class="" data-old_color="#F4F3F3"/>
</g><g>
	<path style="fill:#020202" d="M198.76,116.8c-44.978,0-81.44,36.462-81.44,81.44s36.462,81.44,81.44,81.44   s81.44-36.462,81.44-81.44l0,0C280.156,153.28,243.719,116.844,198.76,116.8z M198.76,270.24c-39.764,0-72-32.236-72-72   s32.235-72,72-72s72,32.236,72,72S238.524,270.24,198.76,270.24z" data-original="#484759" class="" data-old_color="#030303"/>
	<path style="fill:#020202" d="M203.48,193.52v-45.36c0-2.607-2.113-4.72-4.72-4.72s-4.72,2.113-4.72,4.72v45.36h-45.36   c-2.607,0-4.72,2.113-4.72,4.72s2.113,4.72,4.72,4.72h45.36v45.36c0,2.607,2.113,4.72,4.72,4.72s4.72-2.113,4.72-4.72v-45.36h45.36   c2.607,0,4.72-2.113,4.72-4.72s-2.113-4.72-4.72-4.72L203.48,193.52z" data-original="#484759" class="" data-old_color="#030303"/>
	<path style="fill:#020202" d="M395.32,175.04c-1.097-0.891-2.536-1.243-3.92-0.96l-57.52,11.52   c-5.935-64.802-57.142-116.21-121.92-122.4l11.52-57.52c0.53-2.552-1.109-5.051-3.661-5.581c-0.322-0.067-0.65-0.1-0.979-0.099h-40   c-2.607-0.01-4.728,2.095-4.739,4.701C174.1,5.03,174.133,5.358,174.2,5.68l11.52,57.52c-64.802,5.935-116.21,57.142-122.4,121.92   L5.72,173.6c-2.552-0.53-5.051,1.109-5.581,3.661c-0.067,0.322-0.1,0.65-0.099,0.979v40c0,2.607,2.113,4.72,4.72,4.72c0,0,0,0,0,0   h0.96l57.52-11.52c5.935,64.802,57.142,116.21,121.92,122.4l-11.52,57.6c-0.53,2.552,1.109,5.051,3.661,5.581   c0.322,0.067,0.65,0.1,0.979,0.099h40c2.607,0.01,4.728-2.095,4.739-4.701c0.001-0.329-0.032-0.657-0.099-0.979l-11.52-57.52   c64.802-5.935,116.21-57.142,122.4-121.92l57.6,11.52h0.96c2.607,0,4.72-2.113,4.72-4.72l0,0v-40   C397.105,177.342,396.456,175.954,395.32,175.04z M213.08,9.44l-14.32,70.24L184.92,9.44L213.08,9.44z M9.96,183.92l70.24,14.32   L9.96,212.08L9.96,183.92z M184.44,387.04l14.32-70.24l14.08,70.24H184.44z M209.56,324l-6.48-32   c-0.478-2.563-2.943-4.253-5.505-3.775c-1.917,0.358-3.417,1.857-3.775,3.775l-6.4,32C126.38,318.608,78.094,270.085,73,209.04   l32-6.48c2.563-0.478,4.253-2.943,3.775-5.505c-0.358-1.917-1.857-3.417-3.775-3.775l-32-6.4   c5.392-61.02,53.915-109.306,114.96-114.4l6.48,32c0.478,2.563,2.943,4.253,5.505,3.775c1.917-0.358,3.417-1.857,3.775-3.775   l6.4-32c61.02,5.392,109.306,53.915,114.4,114.96l-32,6.48c-2.563,0.478-4.253,2.943-3.775,5.505   c0.358,1.917,1.857,3.417,3.775,3.775l32,6.4C319.128,270.62,270.605,318.906,209.56,324z M387.56,212.56l-70.24-14.32l70.24-14.08   V212.56z" data-original="#484759" class="" data-old_color="#030303"/>
</g></g> </svg>
