<?xml version="1.0" encoding="iso-8859-1"?>
<!-- Generator: Adobe Illustrator 19.0.0, SVG Export Plug-In . SVG Version: 6.00 Build 0)  -->
<svg version="1.1" id="Layer_1" xmlns="http://www.w3.org/2000/svg" xmlns:xlink="http://www.w3.org/1999/xlink" x="0px" y="0px"
	 viewBox="0 0 494.487 494.487" style="enable-background:new 0 0 494.487 494.487;" xml:space="preserve" width="16px" height="16px">
<g>
	<path style="fill:#D5B4E8;" d="M476.958,17.558c0.379,0.379,0.735,0.772,1.102,1.159C477.706,18.327,477.34,17.94,476.958,17.558z"
		/>
	<path style="fill:#D5B4E8;" d="M370.88,123.612L476.947,17.545c-23.396-23.394-61.46-23.394-84.853,0l-63.641,63.64L370.88,123.612
		L370.88,123.612z"/>
	<path style="fill:#A258CD;" d="M478.06,18.717c-0.367-0.387-0.723-0.78-1.102-1.159c-0.004-0.004-0.008-0.008-0.012-0.012
		L370.88,123.612l42.426,42.426l63.64-63.639C499.957,79.388,500.317,42.193,478.06,18.717z"/>
	<path style="fill:#FFEB99;" d="M286.026,208.464L286.026,208.464L243.6,166.038L91.573,318.066
		c-23.394,23.394-23.394,61.458,0,84.853L286.026,208.464L286.026,208.464z"/>
	<path style="fill:#FFDE55;" d="M91.573,402.918c23.394,23.394,61.459,23.394,84.853,0l152.028-152.028l-42.427-42.427
		L91.573,402.918z"/>
	<polygon style="fill:#A258CD;" points="358.758,281.195 370.88,293.317 370.88,293.317 370.88,293.317 	"/>
	<path style="fill:#A258CD;" d="M370.88,123.611l-42.426-42.426c-11.301-11.301-26.368-17.524-42.426-17.524c-0.001,0,0,0-0.001,0
		c-16.057,0-31.125,6.225-42.425,17.524l-42.428,42.427l42.426,42.426l42.426,42.426L370.88,123.611z"/>
	<path style="fill:#8034AD;" d="M370.88,123.612L370.88,123.612l-84.854,84.852l0,0l42.427,42.427l30.304,30.304l12.122,12.122l0,0
		l42.426-42.426c11.302-11.301,17.526-26.369,17.526-42.427c0-16.058-6.225-31.125-17.525-42.426l0,0L370.88,123.612z"/>
	<path style="fill:#8034AD;" d="M10.256,434.738c-6.61,6.61-10.252,15.4-10.252,24.749c0,9.349,3.641,18.138,10.252,24.749
		c6.61,6.611,15.399,10.251,24.748,10.251c9.35,0,18.139-3.641,24.749-10.251c9.674-9.673,15.611-35.688,18.29-50.334l3.907-21.361
		l-21.361,3.907C45.944,419.126,19.929,425.065,10.256,434.738z"/>
</g>
<g>
</g>
<g>
</g>
<g>
</g>
<g>
</g>
<g>
</g>
<g>
</g>
<g>
</g>
<g>
</g>
<g>
</g>
<g>
</g>
<g>
</g>
<g>
</g>
<g>
</g>
<g>
</g>
<g>
</g>
</svg>
