<?xml version="1.0" encoding="iso-8859-1"?>
<!-- Generator: Adobe Illustrator 19.0.0, SVG Export Plug-In . SVG Version: 6.00 Build 0)  -->
<svg version="1.1" id="Capa_1" xmlns="http://www.w3.org/2000/svg" xmlns:xlink="http://www.w3.org/1999/xlink" x="0px" y="0px"
	 viewBox="0 0 512.001 512.001" style="enable-background:new 0 0 512.001 512.001;" xml:space="preserve">
<path style="fill:#EA596E;" d="M115.121,152.013C51.643,152.013,0,203.656,0,267.134v90.094h30.031v-90.094
	c0-16.559,13.472-30.032,30.031-30.032c9.993,0,19.306,4.954,24.912,13.251l83.551-85.226
	C152.168,156.548,133.701,152.013,115.121,152.013z"/>
<path style="fill:#CCEFFF;" d="M310.075,498.339L65.864,254.129L267.79,52.203l244.211,244.211L310.075,498.339z"/>
<rect x="268.012" y="52.11" transform="matrix(-0.7071 0.7071 -0.7071 -0.7071 738.3442 143.7473)" style="fill:#ACE3FC;" width="142.778" height="345.359"/>
<path style="fill:#0A4EAF;" d="M327.91,276.419c-38.11,0-73.885-14.821-100.916-41.851l21.235-21.235
	c21.686,21.686,50.501,33.412,81.116,33.046c30.615-0.375,59.142-12.835,80.328-35.085c41.801-43.9,40.471-114.954-2.964-158.39
	c-12.3-12.299-32.312-12.299-44.612,0l-46.805,46.805l-21.235-21.235l46.805-46.805c24.008-24.009,63.074-24.009,87.082,0
	c26.604,26.604,41.672,61.958,42.43,99.55c0.762,37.811-13.072,73.603-38.952,100.784c-26.813,28.16-62.935,43.93-101.71,44.406
	C329.112,276.416,328.511,276.419,327.91,276.419z"/>
<circle style="fill:#0C61C6;" cx="237.609" cy="223.955" r="30.031"/>
<g>
</g>
<g>
</g>
<g>
</g>
<g>
</g>
<g>
</g>
<g>
</g>
<g>
</g>
<g>
</g>
<g>
</g>
<g>
</g>
<g>
</g>
<g>
</g>
<g>
</g>
<g>
</g>
<g>
</g>
</svg>
