<?xml version="1.0" encoding="iso-8859-1"?>
<!-- Generator: Adobe Illustrator 19.0.0, SVG Export Plug-In . SVG Version: 6.00 Build 0)  -->
<svg version="1.1" id="Capa_1" xmlns="http://www.w3.org/2000/svg" xmlns:xlink="http://www.w3.org/1999/xlink" x="0px" y="0px"
	 viewBox="0 0 512 512" style="enable-background:new 0 0 512 512;" xml:space="preserve" width="16px" height="16px">
<g>
	<g>
		<path d="M495.709,421.236L365.382,301.382c-9.309-8.145-23.273-8.145-32.582,1.164l-6.982,6.982l-19.782-19.782
			c27.927-31.418,43.055-72.145,43.055-115.2C349.091,77.964,271.127,0,174.545,0S0,77.964,0,174.545
			s77.964,174.545,174.545,174.545c30.255,0,60.509-8.146,87.273-23.273c5.818-3.491,6.982-10.473,4.655-16.291
			c-3.491-5.818-10.473-6.982-16.291-4.655c-23.273,12.8-48.873,19.782-75.636,19.782c-83.782,1.164-151.273-66.327-151.273-150.109
			S90.764,23.273,174.545,23.273s151.273,67.491,151.273,151.273c0,39.564-15.127,77.964-43.055,105.891
			c-2.327,2.327-3.491,4.655-3.491,8.145v2.327c0,3.491,1.164,5.818,3.491,8.145l26.764,26.764l-6.982,6.982
			c-9.309,9.309-9.309,23.273-1.164,32.582l119.855,130.327c9.309,10.473,23.273,16.291,38.4,16.291
			C488.727,512,512,488.727,512,459.636C512,445.673,506.182,431.709,495.709,421.236z M459.636,488.727
			c-8.145,0-16.291-3.491-20.945-9.309L318.836,349.091l30.255-30.255l130.327,119.855c5.818,5.818,9.309,12.8,9.309,20.945
			C488.727,475.927,475.927,488.727,459.636,488.727z"/>
	</g>
</g>
<g>
	<g>
		<path d="M174.545,46.545c-70.982,0-128,57.018-128,128s57.018,128,128,128s128-57.018,128-128S245.527,46.545,174.545,46.545z
			 M174.545,279.273c-58.182,0-104.727-46.545-104.727-104.727S116.364,69.818,174.545,69.818s104.727,46.545,104.727,104.727
			S232.727,279.273,174.545,279.273z"/>
	</g>
</g>
<g>
</g>
<g>
</g>
<g>
</g>
<g>
</g>
<g>
</g>
<g>
</g>
<g>
</g>
<g>
</g>
<g>
</g>
<g>
</g>
<g>
</g>
<g>
</g>
<g>
</g>
<g>
</g>
<g>
</g>
</svg>
